<?xml version="1.0" encoding="iso-8859-1"?>
<!-- Generator: Adobe Illustrator 19.0.0, SVG Export Plug-In . SVG Version: 6.00 Build 0)  -->
<svg version="1.1" id="Layer_1" xmlns="http://www.w3.org/2000/svg" xmlns:xlink="http://www.w3.org/1999/xlink" x="0px" y="0px"
	 viewBox="0 0 496.2 496.2" style="enable-background:new 0 0 496.2 496.2;" xml:space="preserve">
<path style="fill:#4ABC96;" d="M248.1,0C111.1,0,0,111.1,0,248.1s111.1,248.1,248.1,248.1s248.1-111.1,248.1-248.1S385.1,0,248.1,0z
	"/>
<path style="fill:#337180;" d="M418.5,382.8c-8.5-27.3-81.2-49.3-170.8-49.3s-161.5,22-170,49.3c-2.6,8.5-5.5,22.2-8.3,37.4
	c45.1,46.9,108.5,76,178.7,76s133.6-29.2,178.7-76C424.1,405,421.2,391.2,418.5,382.8z"/>
<g>
	<path style="fill:#EACAB5;" d="M251.9,407.9c-0.1-1.4-1.2-2.4-2.6-2.4c-1.4,0.1-2.5,1.2-2.4,2.6c0.8,22.1,5.9,81.7,5.9,82.3
		c0.1,1.3,1.2,2.3,2.5,2.3c0.1,0,0.1,0,0.2,0c1.4-0.1,2.4-1.3,2.3-2.7C257.8,489.3,252.7,429.8,251.9,407.9z"/>
	<path style="fill:#EACAB5;" d="M246.9,405.5c-1.4,0-2.5,1-2.6,2.4c-0.8,21.9-5.9,81.4-5.9,82c-0.1,1.4,0.9,2.6,2.3,2.7
		c0.1,0,0.1,0,0.2,0c1.3,0,2.4-1,2.5-2.3c0.1-0.6,5.1-60.2,5.9-82.3C249.4,406.7,248.3,405.5,246.9,405.5z"/>
</g>
<rect x="195.4" y="328.4" style="fill:#337180;" width="105.5" height="33.9"/>
<path style="fill:#E5BDA3;" d="M247.7,333.4c-34.3,0-66.1,3.2-92.6,8.8c17.4,40.7,93,68.6,93,68.6s75.6-27.8,93-68.5
	C314.3,336.7,282.3,333.4,247.7,333.4z"/>
<g>
	<path style="fill:#58BCC6;" d="M195.4,328.4c-14.4,1.5-40.3,13.8-40.3,13.8c10.4,24.2,41.3,43.9,64.7,55.9
		C210.4,381.5,200.9,352.7,195.4,328.4z"/>
	<path style="fill:#58BCC6;" d="M300.8,328.4c-5.5,24.3-15,53.1-24.4,69.7c23.4-11.9,54.3-31.6,64.7-55.8
		C341.1,342.3,315.1,329.9,300.8,328.4z"/>
</g>
<path style="fill:#E5BDA3;" d="M202.1,282.1c0,0,7.7,29,7.7,66.9c5.7,27.5,71.1,27.2,76.8-0.5c0-38,7.5-66.5,7.5-66.5h-92V282.1z"/>
<path style="fill:#F4C9AB;" d="M248.1,72.6c-48.7,0-88.3,10.2-88.3,102.6c0,31.3,15.9,72.2,23.6,91.4c13.2,32.7,46.7,50.5,64.7,50.5
	s51.5-18.5,64.7-50.5c7.9-19.1,23.6-60.1,23.6-91.4C336.4,82.8,296.8,72.6,248.1,72.6z"/>
<path style="fill:#C6896D;" d="M260.9,266.3c-3.7-0.7-12.8,3.8-12.8,3.8s-9.3-4.5-13-3.8c-5.9,1.1-14.7,6.7-14.7,8.7h55.3
	C275.8,275,266.9,267.3,260.9,266.3z"/>
<path style="fill:#AF7556;" d="M248.1,273.2c-16.4,0-27.7,1.9-27.7,1.9s12.3,6.8,16.4,8.1s19.2,0.9,22.8-0.1c3.7-1,16.1-8,16.1-8
	S264.5,273.2,248.1,273.2z"/>
<g>
	<path style="fill:#D8A684;" d="M227.7,237c0,0-3.7,15.1,9.5,12.7C237.2,249.7,229.8,250.4,227.7,237z"/>
	<path style="fill:#D8A684;" d="M268.5,237c-2.1,13.4-9.5,12.7-9.5,12.7C272.2,252,268.5,237,268.5,237z"/>
	<path style="fill:#D8A684;" d="M238.3,245.1c9.8,13.7,19.6,0,19.6,0C248.4,251.3,238.3,245.1,238.3,245.1z"/>
	<path style="fill:#D8A684;" d="M260.3,206.1c0,0-0.8,9.5,3.2,16.7L260.3,206.1z"/>
</g>
<g>
	<path style="fill:#F4C9AB;" d="M164.4,178c-8.4,1.4-14.9,5.1-10.1,32.9s10.7,29.1,19.1,27.7L164.4,178z"/>
	<path style="fill:#F4C9AB;" d="M331.9,178l-9,60.6c8.4,1.4,14.3,0.1,19.1-27.7C346.7,183.1,340.3,179.5,331.9,178z"/>
</g>
<g>
	<path style="fill:#3A3431;" d="M229.8,169.9l-0.3-0.1c-2.2-0.9-6.6-2.3-12-3.4c-0.2,0-0.8,0.4-0.8,0.4s-0.6-0.7-1-0.8
		c-1.1-0.2-2.3-0.4-3.4-0.6c-6.8-1.2-19.5-2.7-27.4,0.2c-1,0.4-1.5,1-1.3,1.7c0.1,0.3,0.6,1,2.2,1.3c0.8,0.1,2,0.2,3.5,0.1
		c2.1-0.1,10.2-0.2,19.9,1.5c3.6,0.6,7,1.4,10,2.3c0.8,0.2,2.4-0.4,2.4-0.4s1,1.6,1.7,1.8c0.5,0.2,1,0.4,1.5,0.6
		c0.4,0.1,0.8,0.3,1.2,0.5c0.7,0.3,1.4,0.6,2,0.8c0.5,0.2,0.9,0.3,1.3,0.3c2,0.3,3.6-0.2,4.5-1.4
		C235.5,172.2,232.3,170.9,229.8,169.9z"/>
	<path style="fill:#3A3431;" d="M311.3,165.4c-7.9-2.9-20.6-1.3-27.4-0.2c-1.2,0.2-2.3,0.4-3.4,0.6c-0.4,0.1-1,0.8-1,0.8
		s-0.6-0.4-0.8-0.4c-5.4,1.2-9.8,2.5-12,3.4l-0.3,0.1c-2.5,1-5.6,2.4-3.9,4.7c0.9,1.2,2.5,1.7,4.5,1.4c0.4-0.1,0.8-0.2,1.3-0.3
		c0.6-0.2,1.3-0.5,2-0.8c0.4-0.2,0.8-0.4,1.2-0.5c0.5-0.2,1-0.4,1.5-0.6c0.6-0.2,1.7-1.8,1.7-1.8s1.7,0.7,2.4,0.4
		c3.1-0.9,6.4-1.7,10-2.3c9.7-1.7,17.8-1.6,19.9-1.5c1.5,0.1,2.6,0.1,3.5-0.1c1.6-0.3,2.1-1,2.2-1.3
		C312.8,166.5,312.4,165.8,311.3,165.4z"/>
	<path style="fill:#3A3431;" d="M212.3,185.1c-19.4-2.7-17.3,8.5-17.3,8.5s6.5,4.8,17.8,4.8c12.4,0,19.2-3.1,19.2-3.1
		S226.2,187,212.3,185.1z"/>
</g>
<path style="fill:#EADAD0;" d="M211.9,185.9c-12.7-1-17,7.7-17,7.7s7.4,4.2,18.7,3.5c10,0.3,18.3-1.8,18.3-1.8
	S224.6,187,211.9,185.9z"/>
<path style="fill:#38251A;" d="M218.4,187.2c-2-0.6-4.1-1-6.5-1.2c-1.7-0.1-3.2-0.1-4.6,0.1c-0.8,1.1-1.3,2.4-1.3,3.9
	c0,3.6,2.9,6.5,6.5,6.5s6.5-2.9,6.5-6.5C219,188.9,218.8,188,218.4,187.2z"/>
<g>
	<path style="fill:#3A3431;" d="M213.6,197.1c-11.2,0.7-18.7-3.5-18.7-3.5s6.5,4.8,17.8,4.8c12.4,0,19.2-3.1,19.2-3.1
		S223.6,197.4,213.6,197.1z"/>
	<path style="fill:#3A3431;" d="M212.3,185.1c-19.4-2.7-17.3,8.5-17.3,8.5s4.3-8.7,17-7.7s20.1,9.3,20.1,9.3S226.2,187,212.3,185.1z
		"/>
	<path style="fill:#3A3431;" d="M283.9,185.1c-14,1.9-19.7,10.2-19.7,10.2s6.8,3.1,19.2,3.1c11.3,0,17.8-4.8,17.8-4.8
		S303.3,182.4,283.9,185.1z"/>
</g>
<path style="fill:#EADAD0;" d="M284.3,185.9c-12.7,1-20.1,9.3-20.1,9.3s8.3,2.2,18.3,1.8c11.2,0.7,18.7-3.5,18.7-3.5
	S297,184.9,284.3,185.9z"/>
<path style="fill:#38251A;" d="M288.9,186c-1.4-0.2-2.9-0.2-4.6-0.1c-2.4,0.2-4.5,0.6-6.5,1.2c-0.4,0.8-0.6,1.7-0.6,2.7
	c0,3.6,2.9,6.5,6.5,6.5s6.5-2.9,6.5-6.5C290.2,188.4,289.7,187.1,288.9,186z"/>
<g>
	<path style="fill:#3A3431;" d="M282.6,197.1c-10,0.3-18.3-1.8-18.3-1.8s6.8,3.1,19.2,3.1c11.3,0,17.8-4.8,17.8-4.8
		S293.8,197.8,282.6,197.1z"/>
	<path style="fill:#3A3431;" d="M283.9,185.1c-14,1.9-19.7,10.2-19.7,10.2s7.3-8.3,20.1-9.3c12.7-1,17,7.7,17,7.7
		S303.3,182.4,283.9,185.1z"/>
	<path style="fill:#3A3431;" d="M349.7,153.2c0,0,8-15.5-12.4-29c0,0,10.2-2,11.7,2.7c0,0-5.1-25-20.4-31.7c0,0,6.6-2,15.3,6.8
		c0,0-3.6-18.9-25.5-25c0,0,4.4-2,11.7,1.4c0,0-5.8-12.2-24-16.2c0,0-1.5-6.1,6.6-5.4c0,0-16-7.4-31.3-8.1c0,0,5.1-10.8,13.8-10.8
		c0,0-21.1-6.1-35.7,2c0,0-8-3.4-2.9-6.1c0,0-39.3-1.4-41.5,19.6c0,0-10.9-0.7-20.4-5.4c0,0-9.5,6.8-0.7,14.9
		c0,0-22.6,0.7-32.8,16.9c0,0,5.1-2,11.7-1.4c0,0-17.5,8.8-19.7,23.6c0,0,5.1-2,10.9-1.4c0,0-10.2,6.1-14.6,18.2c0,0,4.4-1.4,10.9-2
		c0,0-22.6,17.6-22.6,42.6c0,0,8.7-13.5,13.8-13.5c0,0-2.9,21.6,2.9,45.9c0,0,3.6-11.5,7.3-10.8c0,0-0.7,18.9,10.9,31.7
		c0,0,0-43.9,8-44.6c0,0,4.4,6.1,9.5,10.1c0,0-9.5-53.4,13.8-57.4c0,0,7.3,39.9,35.7,45.3c0,0-9.5-28.4-8.7-39.2
		c0,0,30.6,14.2,40.1,42.6c0,0,3.6-15.5-1.5-39.2c0,0,15.3,8.1,13.8,35.1c0,0,11.7-4.7,12.4-20.3c0,0,9.5,14.9,5.1,30.4
		c0,0,2.2,3.4,6.6-4.1c0,0,17.7,8.7,16.7,37.1c0,0,18.5-23.4,12.8-47.3c0,0,5.2,12.8,4.5,21.6c0,0,4.7-19.6-0.4-42.6
		C340.9,140.3,347.5,145.7,349.7,153.2z"/>
</g>
<g>
</g>
<g>
</g>
<g>
</g>
<g>
</g>
<g>
</g>
<g>
</g>
<g>
</g>
<g>
</g>
<g>
</g>
<g>
</g>
<g>
</g>
<g>
</g>
<g>
</g>
<g>
</g>
<g>
</g>
</svg>
