<?xml version="1.0" encoding="iso-8859-1"?>
<!-- Generator: Adobe Illustrator 19.0.0, SVG Export Plug-In . SVG Version: 6.00 Build 0)  -->
<svg version="1.1" id="Layer_1" xmlns="http://www.w3.org/2000/svg" xmlns:xlink="http://www.w3.org/1999/xlink" x="0px" y="0px"
	 viewBox="0 0 496.2 496.2" style="enable-background:new 0 0 496.2 496.2;" xml:space="preserve">
<path style="fill:#4ABC96;" d="M248.1,0C111.1,0,0,111.1,0,248.1s111.1,248.1,248.1,248.1s248.1-111.1,248.1-248.1S385.1,0,248.1,0z
	"/>
<path style="fill:#191919;" d="M392.9,382.8c-6-22.2-51.6-41.1-108.8-47.3l-37,37.8l-36.9-37.8c-57.2,6.2-103,25.1-109,47.3
	c-3.1,11.7-7,35.7-10.1,57.4c42.8,35,97.4,56,157,56c58.7,0,112.6-20.4,155-54.4C400,419.9,396,394.5,392.9,382.8z"/>
<g>
	<path style="fill:#EA4949;" d="M248.1,65.6c-155,0-116.2,374.7-116.2,374.7s33.1-45.2,116.2-45.2s116,45.2,116,45.2
		S403.1,65.6,248.1,65.6z"/>
	<path style="fill:#EA4949;" d="M248.1,65.6c-145.8,0-120.1,357.3-116.5,401.5c34.7,18.5,74.4,29,116.5,29s81.7-10.5,116.4-28.9
		C368,423.4,394,65.6,248.1,65.6z"/>
</g>
<g>
	<path style="fill:#D33D3D;" d="M327,305.6c-3.9,6.3-8.1,12.5-12.5,18.4c-8.8,11.9-18.5,23.1-29.2,33.3
		c-10.7,10.2-22.3,19.3-34.7,27.3c-12.5,7.9-25.8,14.6-39.8,20.2c14.8-2.8,29.2-8.2,42.5-15.5c13.4-7.2,25.8-16.4,36.8-26.9
		s20.7-22.4,28.9-35.2c4.1-6.4,7.8-13,11-19.9s6.1-13.9,8.1-21.1C334.7,292.8,331,299.3,327,305.6z"/>
	<path style="fill:#D33D3D;" d="M196.8,350.9c-5.9-6.6-11.6-13.3-17-20.3s-10.5-14.1-15.4-21.5c-4.8-7.4-9.5-15-13.8-22.9
		c0.3,2.3,0.9,4.5,1.5,6.7s1.3,4.4,2.1,6.5c1.6,4.3,3.4,8.5,5.4,12.5c4.1,8.1,9,15.9,14.6,23.1s11.9,13.9,18.7,19.9
		c6.9,6,14.3,11.3,22.3,15.6C209,363.8,202.7,357.5,196.8,350.9z"/>
</g>
<path style="fill:#EA4949;" d="M287,282.1h-77.8c12.1,36.6,1,53.3,1,53.3l26.9,47.2h22l26.9-47.2C286,335.4,274.9,318.7,287,282.1z"
	/>
<path style="fill:#F4B382;" d="M248.1,77.1c-44,0-79.8,5.7-79.8,98.1c0,31.3,5.6,55.8,14,74.7c18.4,41.6,50.3,56.1,65.8,56.1
	s47.3-14.5,65.8-56.1c8.4-18.9,14-43.4,14-74.7C327.9,82.8,292.1,77.1,248.1,77.1z"/>
<path style="fill:#CE9163;" d="M236.2,244.7c-0.4-1.5-0.5-3-0.8-4.7c-0.7,0.8-1,1.7-1.2,2.6c-0.2,0.9-0.2,1.8,0,2.6s0.7,1.7,1.4,2.3
	c0.7,0.7,1.7,1.1,2.8,1.3C237.2,247.4,236.6,246.2,236.2,244.7z"/>
<g>
	<path style="fill:#AD7550;" d="M244.7,244.8c-0.3-0.6-0.8-1.1-1.4-1.4c-0.6-0.3-1.3-0.4-2.2-0.2c-0.8,0.1-1.8,0.6-2.6,1.3
		c1.5-0.1,2.7,0.1,3.7,0.6s1.9,1.2,3,1.9C245.2,246.1,245,245.4,244.7,244.8z"/>
	<path style="fill:#AD7550;" d="M255.4,243.2c-0.8-0.2-1.6,0-2.2,0.2c-0.6,0.3-1.1,0.7-1.4,1.4c-0.3,0.6-0.5,1.3-0.4,2.2
		c1.1-0.7,1.9-1.4,3-1.9c1-0.5,2.1-0.7,3.7-0.6C257.2,243.8,256.3,243.4,255.4,243.2z"/>
</g>
<g>
	<path style="fill:#CE9163;" d="M262,242.6c-0.2-0.9-0.6-1.8-1.2-2.6c-0.3,1.7-0.4,3.2-0.8,4.7s-1,2.7-2.2,4.1
		c1.1-0.2,2.1-0.7,2.8-1.3c0.7-0.7,1.1-1.5,1.4-2.3C262.2,244.3,262.2,243.4,262,242.6z"/>
	<path style="fill:#CE9163;" d="M256.1,213.7c0.1-2.7,0.3-5.3,0.7-7.9c0.4-2.6,1.1-5.2,2.1-7.8c-1.7,2.2-2.9,4.7-3.7,7.4
		c-0.8,2.7-1.1,5.5-1.2,8.2c-0.1,2.8,0.2,5.5,0.7,8.3c0.5,2.7,1.2,5.4,2.4,7.9C256.5,224.4,256,219,256.1,213.7z"/>
	<path style="fill:#CE9163;" d="M240.1,211.4c-0.1-0.9-0.2-1.9-0.5-2.8c-0.2-0.9-0.6-1.8-1.1-2.6c-0.1,1-0.1,1.9-0.1,2.8
		c0,0.9,0.1,1.8,0.1,2.7c0.1,0.9,0.1,1.8,0.3,2.7c0.1,0.9,0.3,1.8,0.5,2.8c0.4-0.9,0.5-1.8,0.6-2.8
		C240.2,213.3,240.2,212.4,240.1,211.4z"/>
</g>
<path style="fill:#472B14;" d="M263.2,204.8c0,0.5,2.3,7.6,19.4,5.3c11.1-1.5,11.8-12.2,11.8-12.2
	C274.1,186.6,263.2,204.8,263.2,204.8z"/>
<path style="fill:#F7F0EB;" d="M263.2,204.8c0.1,1.1,1.1,1.5,2,1.8c24.5,8.5,28.2-7.4,28.2-7.4C273.6,191.7,263.2,204.8,263.2,204.8
	z"/>
<ellipse style="fill:#331F12;" cx="280.2" cy="201.5" rx="6.1" ry="6"/>
<g>
	<path style="fill:#191919;" d="M293.8,196.1c-23.5-11.7-30.6,8.7-30.6,8.7s10-12.5,28.9-6.1c0.4,0,0.9,0.2,1.3,0.4
		c4.8,2.6,5.3-1.4,5.3-1.4C296.7,197.7,293.8,196.1,293.8,196.1z"/>
	<path style="fill:#191919;" d="M304.2,189.3c-0.2-0.6-1.9-2.1-2.9-3c-12.2-11.5-25.7-8.7-33.6-5.8c-3.4,1.3-5.5,1.9-4.6,5.1
		c0.9,2.9,2.9,2.6,3.9,2.4c0.9-0.2,2.5-1,3.7-1.4c17.7-6.4,22.7-1.1,27.1,0.6C302.4,189,304.4,189.9,304.2,189.3z"/>
</g>
<path style="fill:#472B14;" d="M201.9,197.9c0,0,0.7,10.7,11.8,12.2c17.1,2.3,19.4-4.8,19.4-5.3C233,204.8,222.1,186.6,201.9,197.9z
	"/>
<path style="fill:#F7F0EB;" d="M202.9,199.2c0,0,3.7,15.9,28.2,7.4c0.9-0.3,1.9-0.8,2-1.8C233,204.8,222.6,191.7,202.9,199.2z"/>
<ellipse style="fill:#331F12;" cx="216" cy="201.5" rx="6.1" ry="6"/>
<g>
	<path style="fill:#191919;" d="M202.4,196.1c0,0-3,1.6-4.8,1.6c0,0,0.4,4,5.3,1.4c0.4-0.2,0.8-0.3,1.3-0.4
		c18.9-6.4,28.9,6.1,28.9,6.1S226,184.3,202.4,196.1z"/>
	<path style="fill:#191919;" d="M228.5,180.5c-7.9-2.9-21.3-5.7-33.6,5.8c-1,0.9-2.7,2.4-2.9,3s1.7-0.3,6.4-2.2
		c4.4-1.8,9.4-7,27.1-0.6c1.2,0.4,2.7,1.2,3.7,1.4c0.9,0.2,3,0.5,3.9-2.4C234.1,182.4,232,181.8,228.5,180.5z"/>
</g>
<path style="fill:#D6876B;" d="M258.5,257.8c-3-0.4-10.4,2.5-10.4,2.5s-7.6-2.9-10.6-2.5c-4.8,0.7-11.9,9-11.9,10.3
	c0,0,10.1,5.2,22.5,5.2s22.5-5.2,22.5-5.2S263.4,258.5,258.5,257.8z"/>
<path style="fill:#CC785E;" d="M254.2,264.4c-2-0.1-4.5,1.7-6.1,1.7c-1.9,0-4.8-1.8-7-1.6c-13.1,0.8-15.5,3.6-15.5,3.6
	s10.1,9.1,22.5,9.1s22.5-9.1,22.5-9.1S267.9,265.2,254.2,264.4z"/>
<g>
	<path style="fill:#F4B382;" d="M169.8,178c-7.6,1.3-13.4,4.6-9.1,29.7c4.3,25.2,9.6,26.3,17.3,25L169.8,178z"/>
	<path style="fill:#F4B382;" d="M326.5,178l-8.1,54.8c7.6,1.3,13,0.1,17.3-25C339.9,182.6,334.1,179.3,326.5,178z"/>
</g>
<path style="fill:#EA4949;" d="M248.1,65.6c-88.4,0-104.8,111.4-118.8,220.5c0,0,33.9-3.4,35.7-9.2c9.8-31.9,7.7-136.2,82.9-136.2
	S321,244.4,331,276.6c1.8,5.9,35.8,9.4,35.8,9.4C352.9,177,336.5,65.6,248.1,65.6z"/>
<g>
</g>
<g>
</g>
<g>
</g>
<g>
</g>
<g>
</g>
<g>
</g>
<g>
</g>
<g>
</g>
<g>
</g>
<g>
</g>
<g>
</g>
<g>
</g>
<g>
</g>
<g>
</g>
<g>
</g>
</svg>
