<?xml version="1.0" encoding="iso-8859-1"?>
<!-- Generator: Adobe Illustrator 19.0.0, SVG Export Plug-In . SVG Version: 6.00 Build 0)  -->
<svg version="1.1" id="Layer_1" xmlns="http://www.w3.org/2000/svg" xmlns:xlink="http://www.w3.org/1999/xlink" x="0px" y="0px"
	 viewBox="0 0 504 504" style="enable-background:new 0 0 504 504;" xml:space="preserve">
<circle style="fill:#2C9984;" cx="252" cy="252" r="252"/>
<g>
	<path style="fill:#2B3B4E;" d="M346.4,170c0,0-10.3,100,13.7,167.6H241.9V170H346.4z"/>
	<path style="fill:#2B3B4E;" d="M157.6,170c0,0,10.3,100-13.7,167.6h118.2V170H157.6z"/>
</g>
<path style="fill:#F9B54C;" d="M304.9,310.2c0,45.2-23.7,60.9-53,60.9c-29.2,0-53-15.7-53-60.9s23.7-102.9,53-102.9
	C281.2,207.3,304.9,265,304.9,310.2z"/>
<path style="fill:#FFD05B;" d="M349.4,165.6c0,1.5,0,3-0.1,4.4c-2,58-44.8,104.3-97.3,104.3c-44.6,0-82.3-33.5-93.8-79.2
	c-2.4-9.4-3.6-19.3-3.6-29.5c0-60,43.6-108.7,97.4-108.7c4.5,0,9,0.3,13.4,1c12.3,1.9,23.8,6.3,34.1,12.8
	C329.3,89.3,349.4,124.8,349.4,165.6z"/>
<path style="fill:#2B3B4E;" d="M299.5,70.8c-10.3-6.5-21.8-10.9-34.1-12.8c-4.4-0.7-8.9-1-13.4-1c-53.8,0-97.4,48.6-97.4,108.7
	c0,10.2,1.3,20.2,3.6,29.5c62.6-13.1,99-49.1,119.4-79.8c14.5,29.1,40.8,50,71.6,54.7c0.1-1.5,0.1-3,0.1-4.4
	C349.4,124.8,329.3,89.3,299.5,70.8z"/>
<path style="fill:#FF7058;" d="M318.9,330.3c-19.1,14.5-42.1,23-66.9,23c-25.6,0-49.2-9-68.6-24.3c-5,19.3-18.2,35.4-39.8,38.4
	c18.9,45.8,60.2,77.7,108.3,77.7c38.2,0,72.1-20.1,94-51.3C324,383,315,355.2,318.9,330.3z"/>
<path style="fill:#E6E9EE;" d="M420.8,439.2c-11.5,10.4-24,19.7-37.3,27.8c10-58.7,27.2-117.7,27.2-117.7S416.2,394.7,420.8,439.2z"
	/>
<path style="fill:#CED5E0;" d="M410.7,349.3c0,0-17.2,58.9-27.2,117.7c-38.3,23.5-83.3,37-131.5,37v-61.7l0,0c0-0.2,0.3-0.7,0.7-1.6
	l0.6-1.3c0.1-0.2,0.2-0.5,0.3-0.7l1.7-3.8c0.5-1.1,1-2.3,1.6-3.6c6.1-14.5,17.3-41.3,27.1-69c1.8-5.2,3.6-10.4,5.3-15.5
	c1-3,2-6.1,2.9-9.1c3.3-10.8,6.2-21.2,8.1-30.5c1.5,0.4,3.1,0.8,4.6,1.3c9.4,2.6,19.7,5.7,30.5,9.3c6.7,2.2,13.7,4.6,20.6,7.3
	C374.5,331.7,393.4,339.8,410.7,349.3z"/>
<path style="fill:#FFFFFF;" d="M324.3,340.1l13.7,33.2l-81.2,65.1l-4.8,3.8c0,0,1.9-4.1,4.8-11.1c10.4-24.5,35.2-84.6,43.5-124.1
	c1.6-8,2.6-15.1,2.7-21c0,0,19,17.3,32.4,31.5c4.2,4.4,7.8,8.5,10.1,11.6L324.3,340.1z"/>
<path style="fill:#CED5E0;" d="M120.5,467c-13.3-8.1-25.8-17.4-37.2-27.8c4.6-44.4,10.1-89.8,10.1-89.8s2,7,5.1,18.5
	c0.4,1.6,0.9,3.2,1.3,5c0.5,1.7,0.9,3.5,1.4,5.4s1,3.8,1.5,5.9c0.6,2.2,1.1,4.4,1.7,6.7c0.6,2.5,1.3,5.1,1.9,7.8
	c1.5,6.3,3.1,13.1,4.7,20.1c0.7,3.4,1.5,6.8,2.2,10.3c2,9.1,3.9,18.4,5.6,27.9c0.4,2.3,0.9,4.6,1.3,6.9
	C120.1,464.9,120.3,466,120.5,467z"/>
<path style="fill:#E6E9EE;" d="M252,442.3V504c-48.2,0-93.2-13.5-131.5-37c-0.2-1-0.4-2.1-0.6-3.1c-0.4-2.3-0.8-4.6-1.3-6.9
	c-1.7-9.5-3.6-18.9-5.6-27.9c-0.7-3.5-1.5-6.9-2.2-10.3c-1.6-7-3.1-13.7-4.7-20.1c-0.6-2.7-1.3-5.3-1.9-7.8
	c-0.6-2.3-1.1-4.6-1.7-6.7c-0.5-2-1-4-1.5-5.9s-0.9-3.7-1.4-5.4c-0.5-1.7-0.9-3.4-1.3-5c-3.1-11.5-5.1-18.5-5.1-18.5
	c17.3-9.5,36.2-17.6,54.7-24.5c7-2.6,13.9-5,20.6-7.3c10.8-3.6,21.1-6.7,30.5-9.3c1.6-0.4,3.1-0.9,4.6-1.3c0.3,1.2,0.5,2.5,0.8,3.8
	c0.9,4.2,2,8.6,3.3,13.1c0.5,1.9,1,3.7,1.6,5.6c0.8,2.6,1.6,5.3,2.4,8c0.2,0.7,0.5,1.4,0.7,2.1c0.7,2.4,1.5,4.7,2.3,7.1
	c1.7,5.1,3.5,10.3,5.3,15.4c2.7,7.6,5.5,15.2,8.3,22.5c0.9,2.3,1.8,4.6,2.6,6.9c0.7,1.9,1.5,3.7,2.2,5.5c0.6,1.5,1.2,3.1,1.8,4.6
	c0.7,1.8,1.5,3.6,2.2,5.4c0.9,2.4,1.9,4.8,2.8,7c2.8,6.7,5.2,12.6,7.2,17.2c0.6,1.3,1.1,2.5,1.6,3.6l1.7,3.8
	C251.3,440.7,251.9,441.9,252,442.3L252,442.3z"/>
<path style="fill:#FFFFFF;" d="M179.7,340.1L166,373.4l81.2,65.1l4.8,3.8c0,0-1.9-4.1-4.8-11.1c-10.4-24.5-35.2-84.6-43.5-124.1
	c-1.6-8-2.6-15.1-2.7-21c0,0-19,17.3-32.4,31.5c-4.2,4.4-7.8,8.5-10.1,11.6L179.7,340.1z"/>
<g>
</g>
<g>
</g>
<g>
</g>
<g>
</g>
<g>
</g>
<g>
</g>
<g>
</g>
<g>
</g>
<g>
</g>
<g>
</g>
<g>
</g>
<g>
</g>
<g>
</g>
<g>
</g>
<g>
</g>
</svg>
