<?xml version="1.0" encoding="iso-8859-1"?>
<!-- Generator: Adobe Illustrator 19.0.0, SVG Export Plug-In . SVG Version: 6.00 Build 0)  -->
<svg version="1.1" id="Layer_1" xmlns="http://www.w3.org/2000/svg" xmlns:xlink="http://www.w3.org/1999/xlink" x="0px" y="0px"
	 viewBox="0 0 496.2 496.2" style="enable-background:new 0 0 496.2 496.2;" xml:space="preserve">
<path style="fill:#337180;" d="M248.1,0C111.1,0,0,111.1,0,248.1s111.1,248.1,248.1,248.1s248.1-111.1,248.1-248.1S385.1,0,248.1,0z
	"/>
<g>
	<path style="fill:#D3D3E5;" d="M124.5,131.2c0,0-3.4,18.9-8,69.9c-3.6,39.2-2.7,179.4-2.7,179.4l104.4,28l2.7-313L124.5,131.2z"/>
	<path style="fill:#D3D3E5;" d="M379.8,199.8c-4.7-51.7-8-68.6-8-68.6l-96.4-35.7l2.7,313l104.4-28
		C382.5,380.5,383.2,238.3,379.8,199.8z"/>
</g>
<path style="fill:#E2E2ED;" d="M418.5,382.8c-8.5-27.3-81.2-49.3-170.8-49.3s-161.5,22-170,49.3c-2.6,8.5-5.5,22.2-8.3,37.4
	c45.1,46.9,108.5,76,178.7,76s133.6-29.2,178.7-76C424.1,405,421.2,391.2,418.5,382.8z"/>
<path style="fill:#C2C2CC;" d="M248.1,300.9c-12.6,0-40.6,3.3-56.1,14.2v32.3c15.5-10.9,43.4-14.2,56.1-14.2
	c12.6,0,40.4,3.2,55.9,14v-32.3C288.6,304.1,260.7,300.9,248.1,300.9z"/>
<g>
	<path style="fill:#A07252;" d="M304.9,269.8H191.3c17.7,46.3,1.4,68.3,1.4,68.3v7.7h110.7v-7.7C303.5,338,287.2,316.1,304.9,269.8z
		"/>
	<path style="fill:#A07252;" d="M161.4,178c-8.4,1.4-14.9,5.1-10.1,32.9s10.7,29.1,19.1,27.7L161.4,178z"/>
	<path style="fill:#A07252;" d="M334.9,178l-9,60.6c8.4,1.4,14.3,0.1,19.1-27.7C349.7,183.1,343.3,179.5,334.9,178z"/>
</g>
<path style="fill:#191919;" d="M248.1,63.3c-48.7,0-88.3,19.5-88.3,111.9c0,31.3,6.2,68.2,15.5,87.1c20.4,41.6,55.7,56.1,72.8,56.1
	s52.4-14.5,72.8-56.1c9.3-18.9,15.5-55.8,15.5-87.1C336.4,82.8,296.8,63.3,248.1,63.3z"/>
<path style="fill:#B27E5B;" d="M248.1,63.3c-46.7,0-84.6,20.3-84.6,108.9c0,30,5.9,65.4,14.8,83.5c11.5,23.4,27.8,30.7,42.7,38.6
	c10.5,5.6,20.3,15.2,27,15.2c6.8,0,16.7-9.6,27.4-15.3c14.8-8,31-15.3,42.4-38.5c8.9-18.1,14.8-53.5,14.8-83.5
	C332.7,83.6,294.8,63.3,248.1,63.3z"/>
<g>
	<path style="fill:#191919;" d="M248.1,251.1c-25,0-37.8,8.1-37.8,24c0,19.6,19.4,40.2,37.8,40.2s37.8-20.7,37.8-40.2
		C285.9,259.2,273.1,251.1,248.1,251.1z M248.1,305.4c-14.8,0-31.8-14.3-31.8-30.3c0-4.5,0-18,31.8-18s31.8,13.5,31.8,18
		C279.9,291.1,262.9,305.4,248.1,305.4z"/>
	<path style="fill:#191919;" d="M253.1,290.7c-0.3-0.8-0.8-1.6-1.5-2.5c-0.7-0.8-1.6-1.6-3-2.5h-1c-1.4,0.8-2.3,1.6-3,2.5
		c-0.7,0.8-1.2,1.6-1.5,2.5c-0.3,0.8-0.3,1.6,0,2.5c0.3,0.8,0.8,1.6,1,2.5c0.4,1.6,0.9,3.3,1.5,4.9s1.2,3.3,2,4.9h1
		c0.8-1.6,1.4-3.3,2-4.9s1.1-3.3,1.5-4.9c0.2-0.8,0.6-1.6,1-2.5C253.4,292.3,253.4,291.5,253.1,290.7z"/>
	<path style="fill:#191919;" d="M312.2,170.1c-7.5-7.1-20.9-8.2-28.2-8.2c-1.2,0-2.5,0-3.7,0.1c-0.4,0-1.1,1-1.1,1s-0.5-0.9-0.7-0.9
		c-5.8,0.4-10.6,1.4-13,2.3l-0.4,0.1c-2.8,1-6.3,2.3-4.9,6.7c0.7,2.3,2.3,3.6,4.3,3.6c0.4,0,0.9-0.1,1.4-0.2
		c0.7-0.2,1.4-0.5,2.2-0.8c0.5-0.2,0.9-0.4,1.3-0.5c0.5-0.2,1.1-0.4,1.6-0.6c0.7-0.2,2.1-2.5,2.1-2.5s1.6,1.6,2.4,1.4
		c3.4-0.7,7-1,10.8-1c10.3,0,18.6,2.4,20.8,3.3c1.5,0.6,2.7,0.9,3.6,0.9c1.7,0,2.3-1.1,2.5-1.5C313.5,172.2,313.2,171,312.2,170.1z"
		/>
	<path style="fill:#191919;" d="M231.2,164.5l-0.4-0.1c-1.2-0.5-3.1-0.9-5.3-1.3c-0.8-0.1-2.7,1.3-2.7,1.3s-0.7-1.8-1.1-1.8
		c-2.9-0.3-6.1-0.6-9.6-0.6c-7.3,0-20.7,1.1-28.2,8.2c-1,0.9-1.4,2.1-0.9,3.2c0.2,0.5,0.8,1.5,2.5,1.5c0.9,0,2.1-0.3,3.6-0.9
		c2.1-0.8,10.5-3.3,20.8-3.3c6.3,0,12,0.9,16.9,2.7c0.4,0.1,0.9,0.3,1.3,0.5c0.8,0.3,1.6,0.7,2.2,0.8c0.5,0.1,1,0.2,1.4,0.2
		c2.1,0,3.7-1.3,4.4-3.6C237.5,166.8,234,165.5,231.2,164.5z"/>
</g>
<path style="fill:#9E6E4D;" d="M260.4,260.3c-3.5-0.5-12.3,3.1-12.3,3.1s-8.9-3.7-12.4-3.1c-5.7,0.9-14.1,9.5-14.1,11.2
	c0,2.8,11.9,6.6,26.5,6.6c14.6,0,26.5-3.8,26.5-6.6C274.6,271.6,266.1,261.2,260.4,260.3z"/>
<path style="fill:#896045;" d="M248.1,266.8c-15.7,0-26.5,4.8-26.5,4.8c0,2.8,11.9,6.6,26.5,6.6s26.5-3.8,26.5-6.6
	C274.6,271.6,263.8,266.8,248.1,266.8z"/>
<g>
	<path style="fill:#876249;" d="M257.6,204.2c0-11.4-3.8-14.4-3.8-14.4c2.2,8.3,2,15.2,2.3,21.7c0.4,9.3,4.2,14.6,4.2,14.6
		C258.7,222.2,257.6,215.6,257.6,204.2z"/>
	<path style="fill:#876249;" d="M233.9,235.3c0,0-6.5,12.7,5.1,11.5C238.9,246.9,231.3,244.5,233.9,235.3z"/>
	<path style="fill:#876249;" d="M263.6,235.3c2.5,9.1-5.1,11.5-5.1,11.5C270.1,248.7,263.6,235.3,263.6,235.3z"/>
</g>
<path style="fill:#332016;" d="M281.9,178.4c-9.9-0.2-17.1,11-17.1,11s3.4,3.5,17.6,3.5c14.4,0,19.4-5.5,19.4-5.5
	S293.3,178.6,281.9,178.4z"/>
<path style="fill:#EADAD0;" d="M281.9,178.4c-9.9-0.2-17.1,11-17.1,11s7.7,2.2,17.6,1.7c11.2-0.6,19.4-3.7,19.4-3.7
	S293.3,178.6,281.9,178.4z"/>
<circle style="fill:#2D170F;" cx="283" cy="184.9" r="7.4"/>
<path style="fill:#9E6E4D;" d="M290,177.5c-1.9-0.4-5.9-0.5-8.3-0.5c-9.9,0.3-16.9,12.3-16.9,12.3l0.9,0.2c3.8-3,12.7-10.3,19-10.2
	c11.5,0.3,17.2,8,17.2,8S300.7,179.5,290,177.5z"/>
<g>
	<path style="fill:#191919;" d="M288.4,177.6c-9.9-0.2-23.7,11.7-23.7,11.7l0.9,0.2c3.8-3,12.7-10.3,19-10.2c9.4,0.3,17.2,8,17.2,8
		S299.9,177.9,288.4,177.6z"/>
	<path style="fill:#191919;" d="M282.4,191c-10,0.5-17.6-1.7-17.6-1.7s3.4,3.5,17.6,3.5c14.4,0,19.4-5.5,19.4-5.5
		S293.6,190.4,282.4,191z"/>
</g>
<path style="fill:#332016;" d="M214.3,178.4c-11.5,0.3-19.9,9-19.9,9s5,5.5,19.4,5.5c14.2,0,17.6-3.5,17.6-3.5
	S224.3,178.1,214.3,178.4z"/>
<path style="fill:#EADAD0;" d="M214.3,178.4c-11.5,0.3-19.9,9-19.9,9s8.2,3.1,19.4,3.7c10,0.5,17.6-1.7,17.6-1.7
	S224.3,178.1,214.3,178.4z"/>
<circle style="fill:#2D170F;" cx="213.2" cy="184.9" r="7.4"/>
<path style="fill:#9E6E4D;" d="M214.5,177c-2.4-0.1-6.4,0.1-8.3,0.5c-10.7,2-11.8,9.9-11.8,9.9s5.7-7.7,17.2-8
	c6.2-0.1,15.2,7.2,19,10.2l0.9-0.2C231.5,189.3,224.4,177.3,214.5,177z"/>
<g>
	<path style="fill:#191919;" d="M207.8,177.6c-11.5,0.3-13.3,9.7-13.3,9.7s7.7-7.7,17.2-8c6.2-0.2,15.2,7.2,19,10.2l0.9-0.2
		C231.5,189.3,217.7,177.4,207.8,177.6z"/>
	<path style="fill:#191919;" d="M213.8,191c-11.2-0.6-19.4-3.7-19.4-3.7s5,5.5,19.4,5.5c14.2,0,17.6-3.5,17.6-3.5
		S223.8,191.5,213.8,191z"/>
</g>
<path style="fill:#EDEDF4;" d="M371.8,131.3c0-38.4-64-82.1-123.6-82.2l0,0l0,0l0,0c-59.6,0-123.6,43.8-123.6,82.2
	c0,0-9.3,83.3-9.3,96.3c0,0,16.5-19.2,45.1-47c13-12.6,28.5-47,46-47c13.9-0.8,34,15,41.9,15c8.1,0,28.5-15.8,42.8-15
	c17.5,0,32.5,33.4,45,45c29.8,27.6,45.2,49,45.2,49C381.1,214.6,371.8,131.3,371.8,131.3z"/>
<path style="fill:#0C0C0C;" d="M341.1,75.6l-19,5.3c0.3,1.1,0.5,2.2,0.5,3.3c0,15.7-33.4,28.5-74.5,28.5s-74.5-12.7-74.5-28.5
	c0-1.1,0.2-2.2,0.5-3.3l-19-5.3c-2.5,3.9-8.5,13.1-8.5,16.8c0,21.4,45.4,38.8,101.5,38.8s101.5-17.4,101.5-38.8
	C349.6,88.7,343.7,79.5,341.1,75.6z"/>
<path style="fill:#191919;" d="M248.1,48.3c-53.3,0-96.5,16.5-96.5,36.8s43.2,36.8,96.5,36.8s96.5-16.5,96.5-36.8
	S301.4,48.3,248.1,48.3z M248.1,104.3c-39.1,0-70.9-12.1-70.9-27.1c0-14.9,31.7-27.1,70.9-27.1S319,62.2,319,77.2
	S287.2,104.3,248.1,104.3z"/>
<path style="fill:#C2C2CC;" d="M220.9,347.6v147.1c9,1,18,1.5,27.3,1.5c6.1,0,12.2-0.2,18.2-0.7V347.6H220.9z"/>
<g>
	<path style="fill:#EDEDF4;" d="M225.3,347.6v147.5c7.5,0.7,15.1,1.1,22.8,1.1c7.7,0,15.3-0.4,22.7-1.1V347.6H225.3z"/>
	<path style="fill:#EDEDF4;" d="M248.1,328.9c-12.6,0-40.6-3.3-56.1-14.2v32.4c15.5,10.9,43.4,14.2,56.1,14.2
		c12.6,0,40.4-3.2,55.9-14V315C288.6,325.7,260.7,328.9,248.1,328.9z"/>
</g>
<g>
</g>
<g>
</g>
<g>
</g>
<g>
</g>
<g>
</g>
<g>
</g>
<g>
</g>
<g>
</g>
<g>
</g>
<g>
</g>
<g>
</g>
<g>
</g>
<g>
</g>
<g>
</g>
<g>
</g>
</svg>
