<?xml version="1.0" encoding="iso-8859-1"?>
<!-- Generator: Adobe Illustrator 19.0.0, SVG Export Plug-In . SVG Version: 6.00 Build 0)  -->
<svg version="1.1" id="Layer_1" xmlns="http://www.w3.org/2000/svg" xmlns:xlink="http://www.w3.org/1999/xlink" x="0px" y="0px"
	 viewBox="0 0 496.3 496.3" style="enable-background:new 0 0 496.3 496.3;" xml:space="preserve">
<path style="fill:#A3D5E0;" d="M248.15,0c-137,0-248.1,111.1-248.1,248.1s111.1,248.1,248.1,248.1s248.1-111.1,248.1-248.1
	S385.15,0,248.15,0z"/>
<path style="fill:#8E212E;" d="M418.55,382.8c-8.5-27.3-81.2-49.3-170.8-49.3s-161.5,22-170,49.3c-2.6,8.5-5.5,22.2-8.3,37.4
	c45.1,46.9,108.5,76,178.7,76s133.6-29.2,178.7-76C424.15,405,421.25,391.2,418.55,382.8z"/>
<path style="fill:#A32635;" d="M418.55,382.8c-8.5-27.3-81.2-49.3-170.8-49.3c-6.1,0-17.9,34.8-17.9,34.8s-8.8,22.2-8.1,61.6
	c0.7,39.3,8,65.7,8,65.7c6.1,0.4,12.2,0.7,18.3,0.7c70.2,0,133.6-29.2,178.7-76C424.15,405,421.25,391.2,418.55,382.8z"/>
<g>
	<circle style="fill:#3A322D;" cx="248.15" cy="398.8" r="11"/>
	<circle style="fill:#3A322D;" cx="248.15" cy="445.3" r="11"/>
</g>
<polygon style="fill:#261D17;" points="247.95,304.1 198.15,314.1 210.25,335.4 247.85,363.5 286.05,335.4 298.15,314.1 "/>
<path style="fill:#A07253;" d="M202.15,282.1c0,0,7.7,29,7.7,66.9c5.7,27.5,71.1,27.2,76.8-0.5c0-38,7.5-66.5,7.5-66.5h-92V282.1z"
	/>
<g>
	<path style="fill:#3A322D;" d="M223.95,326.8c-4.8-2.5-25.3-12.7-25.3-12.7l-6,28.9c6.5,13.4,20.8,21.8,37.3,25.2
		c0.5-6.7,1.7-19.2,2-27.6S228.85,329.3,223.95,326.8z"/>
	<path style="fill:#3A322D;" d="M298.15,314.1c0,0-20.5,10.2-25.3,12.7s-8.3,5.5-8,13.8s1.5,20.8,2,27.6
		c16.5-3.5,30.8-11.9,37.3-25.2L298.15,314.1z"/>
</g>
<path style="fill:#261D17;" d="M248.15,72.6c-48.7,0-88.3,10.2-88.3,102.6c0,31.3,8,76.7,16.5,95.9c14.6,32.8,53.8,47.3,71.8,47.3
	s57.2-15.3,71.8-47.3c8.7-19.1,16.5-64.6,16.5-95.9C336.45,82.8,296.85,72.6,248.15,72.6z"/>
<path style="fill:#B27E5B;" d="M248.15,72.6c-48.7,0-88.3,10.2-88.3,102.6c0,31.3,12.4,76.7,20.5,95.9c13.8,32.8,49.8,33,67.8,33
	s54-1,67.8-33c8.2-19.1,20.5-64.6,20.5-95.9C336.45,82.8,296.85,72.6,248.15,72.6z"/>
<path style="fill:#261D17;" d="M284.15,261.6c0-5.3-15.7-8.1-33.1-8.9c-0.8,0-2.8,1.9-2.9,1.9c-0.2,0-2-2-2.8-1.9
	c-17.4,0.8-33.2,3.6-33.2,8.9c0,1.7-1.3,13.7,4.8,10.2c5-6.5,16.2-11.4,28.2-11.9c1,0,2,0.8,3,0.8c1.1,0,2.1-0.8,3.1-0.8
	c12,0.5,22.6,4.6,28.1,11.9C285.45,275.3,284.15,263.3,284.15,261.6z"/>
<path style="fill:#9E6E4D;" d="M260.95,263.6c-3.7-0.7-12.8,1.7-12.8,1.7s-9.3-2.4-13-1.7c-5.9,1.1-14.7,9.4-14.7,11.4
	c0,3.3,12.4,7.8,27.7,7.8s27.7-4.5,27.7-7.8C275.85,275,266.95,264.7,260.95,263.6z"/>
<path style="fill:#896045;" d="M248.15,269.3c-16.4,0-27.7,5.7-27.7,5.7c0,3.3,12.4,7.8,27.7,7.8c15.3,0,27.7-4.5,27.7-7.8
	C275.85,275,264.55,269.3,248.15,269.3z"/>
<path style="fill:#261D17;" d="M248.15,66.4c-46.3,0-88.3,16.3-88.3,108.8c0,4.5,16.6,3,16.6,3c1-11.7,6.5-26.7,9.5-31.2
	c1-1.5,2.1,5.7,3.8,4.7c2.9-1.7,6.9-6.1,10-7.9c26.9-16.2,61.8-22.6,85.6-22.6c33.7,0,50.9,69.7,50.9,54.1
	C336.45,82.8,294.45,66.4,248.15,66.4z"/>
<g>
	<path style="fill:#876249;" d="M257.65,204.2c0-11.4-3.8-14.4-3.8-14.4c2.2,8.3,2,15.2,2.3,21.7c0.4,9.3,4.2,14.6,4.2,14.6
		C258.75,222.2,257.65,215.6,257.65,204.2z"/>
	<path style="fill:#876249;" d="M230.05,235.3c0,0-6.5,12.7,5.1,11.5C235.15,246.9,227.55,244.5,230.05,235.3z"/>
	<path style="fill:#876249;" d="M267.35,235.3c2.5,9.1-5.1,11.5-5.1,11.5C273.85,248.7,267.35,235.3,267.35,235.3z"/>
</g>
<g>
	<path style="fill:#261D17;" d="M180.15,141.8l-14.6-1c-4.2,10.9-5.6,24.4-5.6,37.5c0,0,8.8-1.9,8.8,2.6l2.8,27.6l3.9-1.9
		C175.05,183.6,180.15,141.8,180.15,141.8z"/>
	<path style="fill:#261D17;" d="M330.85,140.8l-14.6-0.4c0,0,5.1,43.2,4.9,66.2l3.9,1.9l2.8-27.6c0-4.5,8.8-2.6,8.8-2.6
		C336.55,165.1,335.15,151.7,330.85,140.8z"/>
</g>
<g>
	<path style="fill:#B27E5B;" d="M161.45,178c-8.4,1.4-14.9,5.1-10.1,32.9s10.7,29.1,19.1,27.7L161.45,178z"/>
	<path style="fill:#B27E5B;" d="M334.95,178l-9,60.6c8.4,1.4,14.3,0.1,19.1-27.7C349.75,183.1,343.35,179.5,334.95,178z"/>
</g>
<path style="fill:#261D17;" d="M313.65,169.4c-8.6-7.3-22-6.8-29.2-5.9c-1.2,0.2-2.4,0.3-3.6,0.6c-0.4,0.1-1,1.3-1,1.3
	s-0.6-1-0.9-0.9c-5.7,1.2-10.3,2.9-12.6,4.3l-0.4,0.2c-2.6,1.5-5.9,3.5-3.9,8.5c1,2.6,2.8,3.9,4.9,3.6c0.4-0.1,0.9-0.2,1.4-0.4
	c0.6-0.3,1.3-0.7,2.1-1.2c0.4-0.3,0.8-0.6,1.2-0.8c0.5-0.3,1-0.6,1.6-0.9c0.6-0.3,1.7-3.2,1.7-3.2s1.8,1.6,2.6,1.3
	c3.2-1.2,6.8-2.1,10.6-2.6c10.2-1.3,18.9,0.4,21.1,1.1c1.6,0.5,2.8,0.7,3.7,0.6c1.7-0.2,2.1-1.5,2.3-2.1
	C315.25,171.8,314.75,170.4,313.65,169.4z"/>
<path style="fill:#EADAD0;" d="M285.65,184.8c-9.9-0.2-19.7,8.6-19.7,8.6s7.7,6.9,17.6,7.8c11.2,1,19.4-9.8,19.4-9.8
	S297.15,185,285.65,184.8z"/>
<circle style="fill:#38251A;" cx="285.35" cy="191.8" r="8"/>
<g>
	<path style="fill:#876249;" d="M283.55,201.1c-9.9-0.9-17.6-7.8-17.6-7.8s7.6,10.1,17.6,10.1c17.7,0,19.4-12.1,19.4-12.1
		S294.85,202.1,283.55,201.1z"/>
	<path style="fill:#876249;" d="M285.65,180.8c-13,0-19.7,12.6-19.7,12.6s9.8-8.8,19.7-8.6c11.5,0.3,17.3,6.6,17.3,6.6
		S300.95,180.8,285.65,180.8z"/>
</g>
<path style="fill:#261D17;" d="M230.35,169l-0.4-0.2c-2.3-1.4-6.9-3.1-12.6-4.3c-0.2-0.1-0.9,0.9-0.9,0.9s-0.6-1.2-1-1.3
	c-1.2-0.2-2.4-0.4-3.6-0.6c-7.2-0.9-20.6-1.4-29.2,5.9c-1.1,1-1.7,2.3-1.4,3.6c0.1,0.6,0.6,1.9,2.3,2.1c0.9,0.1,2.1-0.1,3.7-0.6
	c2.2-0.7,10.9-2.5,21.1-1.1c3.8,0.5,7.3,1.3,10.6,2.6c0.8,0.3,2.6-1.3,2.6-1.3s1,2.9,1.7,3.2c0.5,0.3,1,0.6,1.6,0.9
	c0.4,0.2,0.8,0.5,1.2,0.8c0.8,0.5,1.5,1,2.1,1.2c0.5,0.2,0.9,0.3,1.4,0.4c2.1,0.3,3.8-1.1,4.9-3.6
	C236.15,172.4,232.95,170.5,230.35,169z"/>
<path style="fill:#EADAD0;" d="M210.65,184.8c-11.5,0.3-17.3,6.6-17.3,6.6s8.2,10.8,19.4,9.8c9.9-0.9,17.6-7.8,17.6-7.8
	S220.55,184.5,210.65,184.8z"/>
<circle style="fill:#38251A;" cx="210.95" cy="191.8" r="8"/>
<g>
	<path style="fill:#876249;" d="M212.75,201.1c-11.2,1-19.4-9.8-19.4-9.8s1.7,12.1,19.4,12.1c10,0,17.6-10.1,17.6-10.1
		S222.65,200.2,212.75,201.1z"/>
	<path style="fill:#876249;" d="M210.65,180.8c-15.3,0-17.3,10.6-17.3,10.6s5.9-6.3,17.3-6.6c9.9-0.2,19.7,8.6,19.7,8.6
		S223.65,180.8,210.65,180.8z"/>
</g>
<g>
	<path style="fill:#DFDFEF;" d="M245.65,55.6c-46.7,0-10.1,68.1,1.5,79.8c70.6,70.6,92.5,78.6,95.1,91.3
		C348.65,214.5,424.85,55.6,245.65,55.6z"/>
	<path style="fill:#DFDFEF;" d="M251.65,55.6c-179.2,0-103.1,158.9-96.7,171.1c2.6-12.7,24.5-20.7,95.1-91.3
		C261.85,123.7,298.35,55.6,251.65,55.6z"/>
</g>
<g>
</g>
<g>
</g>
<g>
</g>
<g>
</g>
<g>
</g>
<g>
</g>
<g>
</g>
<g>
</g>
<g>
</g>
<g>
</g>
<g>
</g>
<g>
</g>
<g>
</g>
<g>
</g>
<g>
</g>
</svg>
